PathFileType	4	(X/Y/Z)	./resultDataOpenSim/trcMotMarkerGrf/sub10/qtm-02-04.trc
DataRate	CameraRate	NumFrames	NumMarkers	Units	OrigDataRate	OrigDataStartFrame	OrigNumFrames
250.000000	250.000000	5	24	m	250.000000	246	490
Frame#	Time	L.Toe.Tip			R.Toe.Tip			L.Ankle.Lat			R.Ankle.Lat			L.Ankle.Med			R.Ankle.Med			L.Heel			R.Heel			L.Knee.Lat			R.Knee.Lat			L.Knee.Med			R.Knee.Med			L.Thigh.Upper			R.Thigh.Upper			L.ASIS			R.ASIS			V.Sacral			L.Acromium			R.Acromium			C7			L.Elbow			R.Elbow			L.Wrist.Lat			R.Wrist.Lat
		X1	Y1	Z1	X2	Y2	Z2	X3	Y3	Z3	X4	Y4	Z4	X5	Y5	Z5	X6	Y6	Z6	X7	Y7	Z7	X8	Y8	Z8	X9	Y9	Z9	X10	Y10	Z10	X11	Y11	Z11	X12	Y12	Z12	X13	Y13	Z13	X14	Y14	Z14	X15	Y15	Z15	X16	Y16	Z16	X17	Y17	Z17	X18	Y18	Z18	X19	Y19	Z19	X20	Y20	Z20	X21	Y21	Z21	X22	Y22	Z22	X23	Y23	Z23	X24	Y24	Z24

246	0.98	0.027570186	0.016977302	-0.1354839	0.17002368	0.071905379	0.026034827	-0.10635537	0.045799574	-0.16279437	0.037090736	0.12486707	0.019399388	-0.097058713	0.068693385	-0.079145662	0.088973926	0.14096308	-0.052094979	-0.17372384	0.020623968	-0.1193379	0.00033375842	0.10794682	-0.042603627	-0.015212683	0.42431699	-0.19827813	0.18519434	0.48272675	0.074111357	-0.023514279	0.40476183	-0.075627422	0.23623345	0.50060549	-0.046044169	0.024694444	0.81894129	-0.25976954	-0.010649251	0.83862012	0.11621474	0.074575361	0.92857395	-0.19066879	0.060875795	0.9408838	0.048926825	-0.13919198	0.94748425	-0.077626236	0.03051185	1.4011836	-0.22440199	-0.020787044	1.3996784	0.09597363	-0.077616368	1.4303292	-0.083839845	-0.041065163	1.060386	-0.29008538	-0.14425906	1.0729888	0.12705061	0.16730414	0.90877698	-0.31469857	-0.041558148	0.85829858	0.19159807
247	0.984	0.027686446	0.016957014	-0.13554591	0.19070039	0.07213026	0.026935671	-0.10646517	0.046130831	-0.16247674	0.056060911	0.12056067	0.019525447	-0.09700794	0.069199519	-0.078959785	0.10777802	0.13804849	-0.051826944	-0.1736111	0.021060121	-0.1190475	0.020192963	0.10229486	-0.042875161	-0.014578399	0.42456216	-0.19874746	0.19316158	0.48414599	0.073992233	-0.02275343	0.40496149	-0.075829266	0.24319157	0.50263059	-0.046016795	0.028383551	0.81872971	-0.25991885	-0.0043602496	0.83980036	0.11647081	0.079069614	0.92808803	-0.1911252	0.066821464	0.94137248	0.04844014	-0.13422483	0.94802007	-0.076880491	0.036144703	1.4014728	-0.2244456	-0.01515656	1.3998101	0.095925046	-0.071779723	1.4305553	-0.083845458	-0.035361742	1.0605253	-0.28940803	-0.14051257	1.0740681	0.12704683	0.17646709	0.91103777	-0.31377065	-0.039774959	0.8587135	0.19302881
248	0.988	0.027757192	0.016905952	-0.13554026	0.21136068	0.072528103	0.027876405	-0.10663658	0.046514775	-0.16210044	0.075124585	0.11633734	0.019799311	-0.09683354	0.069651539	-0.078818004	0.126711	0.13535012	-0.051489096	-0.17346005	0.021485211	-0.11872617	0.040188368	0.096776158	-0.042937847	-0.014196081	0.42477102	-0.19904177	0.20094044	0.48536748	0.073872818	-0.021954299	0.40514104	-0.07601739	0.25003075	0.50439147	-0.045965255	0.031948465	0.81848664	-0.26012481	0.0023390504	0.84100423	0.11692426	0.083611786	0.9275815	-0.19155927	0.072799453	0.9417652	0.047989905	-0.12887472	0.94832788	-0.076766992	0.041771709	1.4016857	-0.22450073	-0.0094991792	1.3998528	0.09587385	-0.065948988	1.4307086	-0.083844748	-0.029809347	1.0606145	-0.28859771	-0.1368146	1.0750689	0.12707172	0.18564159	0.91326574	-0.31279276	-0.038191413	0.85904235	0.19431789
249	0.992	0.027808949	0.016840768	-0.13553192	0.23198183	0.073082452	0.028847113	-0.10671439	0.046910834	-0.16180129	0.094329066	0.11218033	0.020226524	-0.09655775	0.070049607	-0.078690252	0.1456985	0.13287463	-0.051120998	-0.17330631	0.021926726	-0.11836846	0.060357036	0.091429625	-0.042876988	-0.014285766	0.42487576	-0.19897714	0.20854274	0.48639916	0.073766832	-0.021125514	0.40529286	-0.076171747	0.25677643	0.50589118	-0.045892853	0.035378775	0.81820483	-0.26039998	0.0091531312	0.84213313	0.11744045	0.088295507	0.92710093	-0.19191582	0.078799554	0.94205363	0.04756619	-0.12335812	0.94831249	-0.077481702	0.047387195	1.4018239	-0.22456751	-0.0038077796	1.3998089	0.095818047	-0.060120351	1.4307868	-0.083834633	-0.024370498	1.0606468	-0.28768434	-0.13317126	1.0759894	0.12714157	0.19482159	0.91546365	-0.31176666	-0.036650881	0.85932179	0.19551759
250	0.996	0.027870652	0.016776188	-0.1355796	0.25253712	0.07375912	0.029833926	-0.10664728	0.047286823	-0.1616078	0.11376527	0.10809585	0.020647624	-0.096231962	0.07042031	-0.078544922	0.1647151	0.13059213	-0.050720087	-0.17316439	0.022387959	-0.11798539	0.080683168	0.086309206	-0.042754891	-0.01466279	0.42489898	-0.19865761	0.21599958	0.48725221	0.073698494	-0.020238599	0.40540287	-0.076307821	0.26343429	0.50713424	-0.045800888	0.038703114	0.81788846	-0.26069944	0.015796673	0.84309916	0.11787481	0.09311639	0.92665702	-0.19217889	0.08482287	0.94223873	0.04716461	-0.11760041	0.94810628	-0.078623852	0.052993677	1.4018835	-0.22463903	0.0019105021	1.3996768	0.095761379	-0.054294386	1.4307903	-0.083813415	-0.019069889	1.0606379	-0.28665469	-0.12958042	1.0768288	0.12725513	0.20396085	0.91761915	-0.31072991	-0.035045619	0.85957034	0.19667334
